<svg xmlns="http://www.w3.org/2000/svg" viewBox="0 0 32 32" width="32" height="32">
  <defs>
    <linearGradient id="grad1" x1="0%" y1="0%" x2="100%" y2="100%">
      <stop offset="0%" style="stop-color:#3b82f6;stop-opacity:1" />
      <stop offset="100%" style="stop-color:#1d4ed8;stop-opacity:1" />
    </linearGradient>
  </defs>
  
  <!-- Background circle -->
  <circle cx="16" cy="16" r="15" fill="url(#grad1)" stroke="#1e40af" stroke-width="2"/>
  
  <!-- Three overlapping image cards to represent shuffling -->
  <!-- Back card (rotated) -->
  <rect x="8" y="10" width="12" height="9" rx="1.5" fill="#e5e7eb" stroke="#9ca3af" stroke-width="0.5" transform="rotate(-15 14 14.5)"/>
  
  <!-- Middle card (slightly rotated) -->
  <rect x="9" y="11" width="12" height="9" rx="1.5" fill="#f3f4f6" stroke="#6b7280" stroke-width="0.5" transform="rotate(-5 15 15.5)"/>
  
  <!-- Front card (straight) -->
  <rect x="10" y="12" width="12" height="9" rx="1.5" fill="#ffffff" stroke="#374151" stroke-width="0.8"/>
  
  <!-- Image icon inside front card -->
  <rect x="11.5" y="13.5" width="9" height="6" rx="0.5" fill="#ddd6fe" stroke="#8b5cf6" stroke-width="0.3"/>
  
  <!-- Mountain icon (simple image representation) -->
  <path d="M12.5 17.5 L14 15.5 L15.5 17.5 Z" fill="#8b5cf6"/>
  <path d="M16 18 L17.5 16 L19 18 Z" fill="#7c3aed"/>
  
  <!-- Sun/circle in top right of image -->
  <circle cx="18.5" cy="15" r="0.8" fill="#fbbf24"/>
  
  <!-- Shuffle arrows (small, subtle) -->
  <path d="M6 25 L8 23 L6 21" stroke="#ffffff" stroke-width="1.2" fill="none" stroke-linecap="round" stroke-linejoin="round"/>
  <path d="M26 7 L24 9 L26 11" stroke="#ffffff" stroke-width="1.2" fill="none" stroke-linecap="round" stroke-linejoin="round"/>
</svg>